<svg width="20" height="20" viewBox="0 0 20 20" fill="none" xmlns="http://www.w3.org/2000/svg">
<path d="M9.92253 1.87793C8.25787 1.87793 6.63059 2.37156 5.24648 3.29639C3.86237 4.22123 2.78358 5.53573 2.14654 7.07368C1.50951 8.61162 1.34283 10.3039 1.66759 11.9366C1.99235 13.5693 2.79396 15.069 3.97105 16.2461C5.14814 17.4232 6.64785 18.2248 8.28052 18.5495C9.91319 18.8743 11.6055 18.7076 13.1434 18.0706C14.6814 17.4335 15.9959 16.3548 16.9207 14.9706C17.8456 13.5865 18.3392 11.9593 18.3392 10.2946C18.3374 8.0629 17.4501 5.92311 15.8721 4.34506C14.294 2.76702 12.1542 1.8797 9.92253 1.87793ZM9.92253 16.8671C8.62212 16.8671 7.35091 16.4815 6.26966 15.759C5.1884 15.0365 4.34567 14.0097 3.84802 12.8082C3.35038 11.6068 3.22017 10.2848 3.47387 9.00938C3.72756 7.73395 4.35377 6.5624 5.2733 5.64287C6.19283 4.72334 7.36439 4.09713 8.63981 3.84343C9.91524 3.58974 11.2373 3.71994 12.4387 4.21759C13.6401 4.71523 14.667 5.55797 15.3894 6.63922C16.1119 7.72048 16.4975 8.99168 16.4975 10.2921C16.4953 12.0352 15.8019 13.7063 14.5693 14.9389C13.3367 16.1715 11.6657 16.8649 9.92253 16.8671Z" fill="#3D4D5D" fill-opacity="0.6"/>
<path d="M10.6486 10.3021V6.77542C10.6486 6.58634 10.5735 6.405 10.4398 6.2713C10.3061 6.13761 10.1247 6.0625 9.93566 6.0625C9.74659 6.0625 9.56526 6.13761 9.43156 6.2713C9.29787 6.405 9.22275 6.58634 9.22275 6.77542V10.5296C9.22275 10.5404 9.22275 10.5512 9.22275 10.5629C9.2173 10.662 9.23273 10.7611 9.26804 10.8539C9.30336 10.9466 9.35778 11.0309 9.42775 11.1012L12.0828 13.7562C12.2165 13.89 12.3978 13.9651 12.5869 13.9651C12.776 13.9651 12.9574 13.89 13.0911 13.7562C13.2248 13.6225 13.2999 13.4412 13.2999 13.2521C13.2999 13.063 13.2248 12.8816 13.0911 12.7479L10.6486 10.3021Z" fill="#3D4D5D" fill-opacity="0.6"/>
</svg>
